<?xml version="1.0" standalone="no"?>
<!DOCTYPE svg PUBLIC "-//W3C//DTD SVG 1.1//EN" "http://www.w3.org/Graphics/SVG/1.1/DTD/svg11.dtd">
<svg xmlns="http://www.w3.org/2000/svg" xmlns:xlink="http://www.w3.org/1999/xlink" viewBox="0 0 190 490" width="190" height="490"><defs><style>.cls-1{fill:none;stroke:#9a7a8d;stroke-miterlimit:10;stroke-width:2px;}.cls-2{fill:url(#radial-gradient);}.cls-3{fill:url(#radial-gradient-2);}.cls-4{fill:#9a7a8d;}.cls-5{fill:#fff;opacity:0.49;}</style><radialGradient id="radial-gradient" cx="97.88" cy="240.77" r="7.55" gradientUnits="userSpaceOnUse"><stop offset="0" stop-color="#2dff30"/><stop offset="0.5" stop-color="#53ee36"/><stop offset="1" stop-color="#9dff6c"/></radialGradient><radialGradient id="radial-gradient-2" cx="96.89" cy="152.96" r="106.84" xlink:href="#radial-gradient"/></defs><g id="Layer_2" data-name="Layer 2"><g id="banner"><path class="cls-1" d="M95,240s10,115,10,250"/><polyline class="cls-2" points="92.5 232.5 90 245 105.45 245.2 95.45 232.7"/><path class="cls-3" d="M190,107.5C190,166.87,127,235,95,235S0,166.87,0,107.5,42.53,0,95,0,190,48.13,190,107.5Z"/><rect class="cls-4" x="90.06" y="234.62" width="12.5" height="2.5" transform="translate(-14.2 6.31) rotate(-3.5)"/><path class="cls-5" d="M15,80c-4.66-2.81,6.61-42.66,30-50,1.27-.4,8.11-2.54,10,0,2.73,3.68-6.55,14.9-15,25C26.49,71.14,17.71,81.63,15,80Z"/><ellipse class="cls-5" cx="15" cy="105" rx="10" ry="15"/></g></g></svg>