<svg id="visual" viewBox="0 0 900 600" width="900" height="600" xmlns="http://www.w3.org/2000/svg" xmlns:xlink="http://www.w3.org/1999/xlink" version="1.1"><path d="M0 43L15 42.7C30 42.3 60 41.7 90 40C120 38.3 150 35.7 180 32C210 28.3 240 23.7 270 25C300 26.3 330 33.7 360 34.2C390 34.7 420 28.3 450 24.3C480 20.3 510 18.7 540 21.7C570 24.7 600 32.3 630 36C660 39.7 690 39.3 720 37.2C750 35 780 31 810 31.5C840 32 870 37 885 39.5L900 42L900 0L885 0C870 0 840 0 810 0C780 0 750 0 720 0C690 0 660 0 630 0C600 0 570 0 540 0C510 0 480 0 450 0C420 0 390 0 360 0C330 0 300 0 270 0C240 0 210 0 180 0C150 0 120 0 90 0C60 0 30 0 15 0L0 0Z" fill="#64daff"></path><path d="M0 11L15 11.7C30 12.3 60 13.7 90 14.3C120 15 150 15 180 16C210 17 240 19 270 20.3C300 21.7 330 22.3 360 22C390 21.7 420 20.3 450 20.7C480 21 510 23 540 23.3C570 23.7 600 22.3 630 23.2C660 24 690 27 720 27.5C750 28 780 26 810 26.2C840 26.3 870 28.7 885 29.8L900 31L900 0L885 0C870 0 840 0 810 0C780 0 750 0 720 0C690 0 660 0 630 0C600 0 570 0 540 0C510 0 480 0 450 0C420 0 390 0 360 0C330 0 300 0 270 0C240 0 210 0 180 0C150 0 120 0 90 0C60 0 30 0 15 0L0 0Z" fill="#53eff0"></path><path d="M0 11L15 12.7C30 14.3 60 17.7 90 17.5C120 17.3 150 13.7 180 13.7C210 13.7 240 17.3 270 18.8C300 20.3 330 19.7 360 19C390 18.3 420 17.7 450 16.8C480 16 510 15 540 13.5C570 12 600 10 630 9.5C660 9 690 10 720 11.8C750 13.7 780 16.3 810 17.2C840 18 870 17 885 16.5L900 16L900 0L885 0C870 0 840 0 810 0C780 0 750 0 720 0C690 0 660 0 630 0C600 0 570 0 540 0C510 0 480 0 450 0C420 0 390 0 360 0C330 0 300 0 270 0C240 0 210 0 180 0C150 0 120 0 90 0C60 0 30 0 15 0L0 0Z" fill="#87ffcc"></path></svg>